<?xml version="1.0" encoding="utf-8" ?><svg xmlns="http://www.w3.org/2000/svg" xmlns:xlink="http://www.w3.org/1999/xlink" width="32" height="32"><path fill="#000" transform="matrix(1 0 0 1 6.11816 6.58887)" d="M13.703 14.8297Q15.8236 12.1423 20.0573 11.0504L19.6171 9.3434Q14.8078 10.5838 12.3192 13.7377Q11.3898 14.9154 10.7449 16.4174Q10.5802 16.8009 10.399 17.3084Q9.6886 16.4065 9.0139 15.7623L8.7823 15.5411L8.4628 15.5202Q5.8851 15.3515 3.8051 13.7993Q1.37 11.982 0.9476 8.9764Q0.6524 6.8751 1.6466 5.064Q2.5884 3.3483 4.4687 2.231Q6.3506 1.1126 8.614 0.9182Q10.9844 0.7145 13.1299 1.5961L13.7999 -0.0344Q11.2592 -1.0784 8.4631 -0.8382Q5.7973 -0.6092 3.5681 0.7155Q1.2745 2.0785 0.1013 4.2157Q-1.1748 6.5403 -0.798 9.2217Q-0.2734 12.9552 2.7508 15.2121Q5.1143 16.9759 8.015 17.2526Q8.9399 18.1929 9.973 19.7181L11.545 19.4835Q11.5689 19.406 11.618 19.2457Q12.0371 17.8758 12.3647 17.1129Q12.9178 15.8247 13.703 14.8297Z" fill-rule="evenodd"/><path fill="#000" transform="matrix(-0.5 -0.866025 -0.866025 0.5 17.6855 17)" d="M1.5361 2.5087Q0.8177 1.5186 0.8867 0.0411L-0.8743 -0.0411Q-0.9721 2.0537 0.1094 3.544Q1.445 5.3846 4.0753 5.4868L4.1438 3.7253Q2.3689 3.6564 1.5361 2.5087Z" fill-rule="evenodd"/><defs><linearGradient id="gradient_0" gradientTransform="matrix(0 8.35468 -8.35468 0 4.17734 0)" gradientUnits="userSpaceOnUse" x1="0" y1="0" x2="1" y2="0"><stop offset="0" stop-color="#6EDF2C"/><stop offset="1" stop-color="#47DED1"/></linearGradient></defs><path fill="url(#gradient_0)" transform="matrix(1 -1.86119e-08 -0.188924 0.981992 20.135 6.67285)" d="M4.1773 0C4.8935 1.9353 6.4194 3.4612 8.3547 4.1773C6.4194 4.8935 4.8935 6.4194 4.1773 8.3547C3.4612 6.4194 1.9353 4.8935 0 4.1773C1.9353 3.4612 3.4612 1.9353 4.1773 0Z"/></svg>