<?xml version="1.0" encoding="utf-8" ?><svg xmlns="http://www.w3.org/2000/svg" xmlns:xlink="http://www.w3.org/1999/xlink" width="16" height="16"><path fill="#000" transform="matrix(0 1 -1 0 9 2)" d="M1 2C0.4478 2 0 1.5523 0 1C0 0.4477 0.4478 0 1 0C1.5522 0 2 0.4477 2 1C2 1.5523 1.5522 2 1 2Z"/><path fill="#000" transform="matrix(0 1 -1 0 9 2)" d="M5 1C5 1.5523 5.4478 2 6 2C6.5522 2 7 1.5523 7 1C7 0.4477 6.5522 0 6 0C5.4478 0 5 0.4477 5 1Z"/><path fill="#000" transform="matrix(0 1 -1 0 9 2)" d="M10 1C10 1.5523 10.4478 2 11 2C11.5522 2 12 1.5523 12 1C12 0.4477 11.5522 0 11 0C10.4478 0 10 0.4477 10 1Z"/></svg>