<?xml version="1.0" encoding="utf-8" ?><svg xmlns="http://www.w3.org/2000/svg" xmlns:xlink="http://www.w3.org/1999/xlink" width="16" height="16"><path fill="#000" transform="matrix(1 0 0 1 1.28711 1.29538)" d="M3.1333 0C1.4028 0 0 1.4028 0 3.1333C0 4.8638 1.4028 6.2667 3.1333 6.2667L5.0133 6.2667C5.3535 6.2667 5.5237 6.2667 5.6607 6.2207C5.924 6.1324 6.1324 5.924 6.2207 5.6607C6.2667 5.5237 6.2667 5.3535 6.2667 5.0133L6.2667 3.1333C6.2667 1.4028 4.8638 0 3.1333 0ZM1.8582 4.4085Q1.33 3.8803 1.33 3.1333Q1.33 2.3864 1.8582 1.8582Q2.3864 1.33 3.1333 1.33Q3.8803 1.33 4.4085 1.8582Q4.9367 2.3864 4.9367 3.1333L4.9367 4.9367L3.1333 4.9367Q2.3864 4.9367 1.8582 4.4085Z" fill-rule="evenodd"/><path fill="#000" transform="matrix(1 0 0 1 1.28711 8.43747)" d="M3.1333 0C1.4028 0 0 1.4028 0 3.1333C0 4.8638 1.4028 6.2667 3.1333 6.2667C4.8638 6.2667 6.2667 4.8638 6.2667 3.1333L6.2667 1.2533C6.2667 0.9131 6.2667 0.743 6.2207 0.606C6.1324 0.3426 5.924 0.1343 5.6607 0.046C5.5237 0 5.3535 0 5.0133 0L3.1333 0ZM1.8582 4.4085Q1.33 3.8803 1.33 3.1333Q1.33 2.3864 1.8582 1.8582Q2.3864 1.33 3.1333 1.33L4.9367 1.33L4.9367 3.1333Q4.9367 3.8803 4.4085 4.4085Q3.8803 4.9367 3.1333 4.9367Q2.3864 4.9367 1.8582 4.4085Z" fill-rule="evenodd"/><path fill="#000" transform="matrix(1 0 0 1 8.44629 1.29538)" d="M3.1333 0C1.4028 0 0 1.4028 0 3.1333L0 5.0133C0 5.3535 0 5.5237 0.046 5.6607C0.1343 5.924 0.3426 6.1324 0.606 6.2207C0.743 6.2667 0.9131 6.2667 1.2533 6.2667L3.1333 6.2667C4.8638 6.2667 6.2667 4.8638 6.2667 3.1333C6.2667 1.4028 4.8638 0 3.1333 0ZM1.33 4.9367L1.33 3.1333Q1.33 2.3864 1.8582 1.8582Q2.3864 1.33 3.1333 1.33Q3.8803 1.33 4.4085 1.8582Q4.9367 2.3864 4.9367 3.1333Q4.9367 3.8803 4.4085 4.4085Q3.8803 4.9367 3.1333 4.9367L1.33 4.9367Z" fill-rule="evenodd"/><path fill="#000" transform="matrix(1 0 0 1 8.44629 8.43747)" d="M0.046 0.606C0 0.743 0 0.9131 0 1.2533L0 3.1333C0 4.8638 1.4028 6.2667 3.1333 6.2667C4.8638 6.2667 6.2667 4.8638 6.2667 3.1333C6.2667 1.4028 4.8638 0 3.1333 0L1.2533 0C0.9131 0 0.743 0 0.606 0.046C0.3426 0.1343 0.1343 0.3426 0.046 0.606ZM1.33 1.33L1.33 3.1333Q1.33 3.8803 1.8582 4.4085Q2.3864 4.9367 3.1333 4.9367Q3.8803 4.9367 4.4085 4.4085Q4.9367 3.8803 4.9367 3.1333Q4.9367 2.3864 4.4085 1.8582Q3.8803 1.33 3.1333 1.33L1.33 1.33Z" fill-rule="evenodd"/></svg>