<?xml version="1.0" encoding="utf-8" ?><svg xmlns="http://www.w3.org/2000/svg" xmlns:xlink="http://www.w3.org/1999/xlink" width="16" height="16"><path fill="#000" transform="matrix(1 0 -0.188924 0.981992 1.54962 3.51953)" d="M5.7409 1.0378C5.8729 0.6813 6.3771 0.6813 6.509 1.0378C7.3153 3.2167 9.0332 4.9347 11.2121 5.7409C11.5686 5.8729 11.5686 6.3771 11.2121 6.509C9.0332 7.3153 7.3153 9.0332 6.509 11.2121C6.3771 11.5686 5.8729 11.5686 5.7409 11.2121C4.9347 9.0332 3.2167 7.3153 1.0378 6.509C0.6813 6.3771 0.6813 5.8729 1.0378 5.7409C3.2167 4.9347 4.9347 3.2167 5.7409 1.0378Z"/><path fill="#000" transform="matrix(1 0 -0.188924 0.981992 9.85001 0.450195)" d="M2.9791 0.5386C3.0476 0.3536 3.3092 0.3536 3.3777 0.5386C3.7961 1.6693 4.6876 2.5607 5.8183 2.9791C6.0033 3.0476 6.0033 3.3092 5.8183 3.3777C4.6876 3.7961 3.7961 4.6876 3.3777 5.8183C3.3092 6.0033 3.0476 6.0033 2.9791 5.8183C2.5607 4.6876 1.6693 3.7961 0.5386 3.3777C0.3536 3.3092 0.3536 3.0476 0.5386 2.9791C1.6693 2.5607 2.5607 1.6693 2.9791 0.5386Z"/></svg>