<?xml version="1.0" encoding="utf-8" ?><svg xmlns="http://www.w3.org/2000/svg" xmlns:xlink="http://www.w3.org/1999/xlink" width="16" height="16"><path fill="#000" fill-opacity="0.9" transform="matrix(1 0 0 1 1.58467 0.874362)" d="M9.1329 2.3928L9.1329 1.165Q9.1329 0.6824 8.7917 0.3412Q8.4504 0 7.9679 0L4.9459 0Q4.4634 0 4.1221 0.3412Q3.7809 0.6824 3.7809 1.165L3.7809 2.3928L0.673 2.3928Q0.3942 2.3848 0.2028 2.5876Q0 2.7791 0.008 3.0578Q0 3.3366 0.2028 3.5281Q0.3942 3.7309 0.673 3.7228L1.5065 3.7228L1.9314 12.6653Q1.963 13.3312 2.4454 13.7912Q2.9279 14.2513 3.5945 14.2513L9.4069 14.2513Q10.076 14.2513 10.559 13.7883Q11.0421 13.3253 11.0704 12.6568L11.4489 3.7228L12.1586 3.7228Q12.4374 3.7309 12.6288 3.5281Q12.8316 3.3366 12.8236 3.0578Q12.8316 2.7791 12.6288 2.5876Q12.4374 2.3848 12.1586 2.3928L9.1329 2.3928ZM10.1177 3.7228L2.838 3.7228L3.2599 12.6022Q3.275 12.9213 3.5945 12.9213L9.4069 12.9213Q9.728 12.9213 9.7416 12.6005L10.1177 3.7228ZM7.8029 2.3928L7.8029 1.33L5.1109 1.33L5.1109 2.3928L7.8029 2.3928ZM7.1822 11.4196L7.1822 5.4843Q7.1903 5.2055 6.9875 5.0141Q6.796 4.8113 6.5172 4.8193Q6.2385 4.8113 6.047 5.0141Q5.8442 5.2055 5.8522 5.4843L5.8522 11.4196Q5.8442 11.6984 6.047 11.8899Q6.2385 12.0927 6.5172 12.0846Q6.796 12.0927 6.9875 11.8899Q7.1903 11.6984 7.1822 11.4196Z" fill-rule="evenodd"/></svg>