<?xml version="1.0" encoding="utf-8" ?><svg xmlns="http://www.w3.org/2000/svg" xmlns:xlink="http://www.w3.org/1999/xlink" width="16" height="16"><path fill="#000" transform="matrix(1 0 0 1 1 2)" d="M-0.6236 2.7733Q-0.6667 3.3009 -0.6667 4.8L-0.6667 7.2Q-0.6667 8.6991 -0.6236 9.2267Q-0.5516 10.109 -0.2669 10.6663Q0.2743 11.7257 1.3337 12.2669Q1.891 12.5516 2.7733 12.6236Q3.3009 12.6667 4.8 12.6667L9.2 12.6667Q10.6991 12.6667 11.2267 12.6236Q12.109 12.5516 12.6663 12.2669Q13.7257 11.7257 14.2669 10.6663Q14.5516 10.109 14.6236 9.2267Q14.6667 8.6991 14.6667 7.2L14.6667 4.8Q14.6667 3.3009 14.6236 2.7733Q14.5516 1.891 14.2669 1.3337Q13.7257 0.2743 12.6663 -0.2669Q12.109 -0.5516 11.2267 -0.6236Q10.6991 -0.6667 9.2 -0.6667L4.8 -0.6667Q3.3009 -0.6667 2.7733 -0.6236Q1.891 -0.5516 1.3337 -0.2669Q0.2743 0.2743 -0.2669 1.3337Q-0.5516 1.891 -0.6236 2.7733ZM0.6667 7.2L0.6667 4.8Q0.6667 3.3552 0.7053 2.8818Q0.7558 2.2625 0.9205 1.9403Q1.2653 1.2653 1.9403 0.9205Q2.2625 0.7558 2.8817 0.7053Q3.3552 0.6667 4.8 0.6667L9.2 0.6667Q10.6448 0.6667 11.1183 0.7053Q11.7375 0.7558 12.0597 0.9205Q12.7347 1.2653 13.0795 1.9403Q13.2442 2.2625 13.2947 2.8818Q13.3333 3.3552 13.3333 4.8L13.3333 7.2Q13.3333 8.6448 13.2947 9.1182Q13.2442 9.7375 13.0795 10.0597Q12.7347 10.7347 12.0597 11.0795Q11.7375 11.2442 11.1183 11.2947Q10.6448 11.3333 9.2 11.3333L4.8 11.3333Q3.3552 11.3333 2.8817 11.2947Q2.2625 11.2442 1.9403 11.0795Q1.2653 10.7347 0.9205 10.0597Q0.7558 9.7375 0.7053 9.1182Q0.6667 8.6448 0.6667 7.2Z" fill-rule="evenodd"/><path fill="#000" transform="matrix(1 0 0 1 12 4.99994)" d="M0.6667 6.2618L0.6667 -0.6667L-0.6667 -0.6667L-0.6667 6.9285L0.6667 6.9285L0.6667 6.2618Z" fill-rule="evenodd"/></svg>